<svg xmlns="http://www.w3.org/2000/svg">
  <symbol id="arrow">
    <polyline class="cls-1" points="1.44 11.46 16.44 1.5 31.44 11.46" />
    <path
      d="M625.16,231.22l15-10h-1.51l15,10c1.61,1.07,3.11-1.53,1.51-2.59l-15-10a1.46,1.46,0,0,0-1.51,0l-15,10c-1.61,1.06-.11,3.66,1.51,2.59Z"
      transform="translate(-622.96 -218.46)"
    />
  </symbol>
  <symbol id="close" viewBox="0 0 12 12">
    <path d="M10.6653 5.13122H7.20214V1.66821C7.20214 0.332846 5.13114 0.332846 5.13114 1.66821V5.13122H1.668C0.332935 5.13122 0.332935 7.20215 1.668 7.20215H5.13114V10.6652C5.13114 12.0005 7.20214 12.0005 7.20214 10.6652V7.20215H10.6653C12.0005 7.20215 12.0005 5.13122 10.6653 5.13122Z" />
  </symbol>
</svg>
